<?xml version="1.0" encoding="UTF-8" standalone="no"?>
<svg
   xmlns:dc="http://purl.org/dc/elements/1.1/"
   xmlns:cc="http://creativecommons.org/ns#"
   xmlns:rdf="http://www.w3.org/1999/02/22-rdf-syntax-ns#"
   xmlns:svg="http://www.w3.org/2000/svg"
   xmlns="http://www.w3.org/2000/svg"
   xmlns:sodipodi="http://sodipodi.sourceforge.net/DTD/sodipodi-0.dtd"
   xmlns:inkscape="http://www.inkscape.org/namespaces/inkscape"
   version="1.1"
   id="Layer_1"
   x="0px"
   y="0px"
   width="870"
   height="100"
   viewBox="0 219.923 870 100"
   enable-background="new 0 219.923 1000 148.438"
   xml:space="preserve"
   sodipodi:docname="DreamWorks_2016_Wordmark.svg"
   inkscape:version="1.0rc1 (09960d6, 2020-04-09)"><metadata
   id="metadata19"><rdf:RDF><cc:Work
       rdf:about=""><dc:format>image/svg+xml</dc:format><dc:type
         rdf:resource="http://purl.org/dc/dcmitype/StillImage" /><dc:title></dc:title></cc:Work></rdf:RDF></metadata><defs
   id="defs17" /><sodipodi:namedview
   inkscape:document-rotation="0"
   pagecolor="#ffffff"
   bordercolor="#666666"
   borderopacity="1"
   objecttolerance="10"
   gridtolerance="10"
   guidetolerance="10"
   inkscape:pageopacity="0"
   inkscape:pageshadow="2"
   inkscape:window-width="1454"
   inkscape:window-height="753"
   id="namedview15"
   showgrid="false"
   fit-margin-top="0"
   fit-margin-left="0"
   fit-margin-right="0"
   fit-margin-bottom="0"
   inkscape:zoom="0.99560635"
   inkscape:cx="417.61613"
   inkscape:cy="59.461728"
   inkscape:window-x="0"
   inkscape:window-y="23"
   inkscape:window-maximized="0"
   inkscape:current-layer="Layer_1" />

<path
   fill="#000000"
   d="m 679.95861,279.4142 c -2.48,1.175 -5.614,1.428 -9.796,1.428 h -1.833 v -19.615 c 0,-3.361 0.396,-4.226 5.878,-4.226 5.103,0 13.07,3.614 13.07,11.672 10e-4,4.104 -1.958,8.041 -7.319,10.741 m -78.207,25.374 c -13.055,0 -19.667,-13.345 -19.667,-24.43 0,-14.692 9.433,-24.542 19.7,-24.542 11.446,0 20.122,8.08 20.122,24.948 0,11.909 -8.697,24.024 -20.155,24.024 m -311.971,-17.872 7.913,-16.076 h 0.39 l 8.039,16.076 z m -111.685,-7.31 c -2.437,1.19 -5.515,1.438 -9.625,1.438 h -1.8 v -19.561 c 0,-3.399 0.395,-4.274 5.778,-4.274 5.004,0 12.835,3.342 12.835,11.507 0,4.163 -1.926,8.163 -7.188,10.89 m -102.999001,23.975 c -8.824,0 -12.868,-2.535 -12.868,-12.676 v -43.71 c 0,-2.837 0.181,-5.463 1.103,-5.693 1.284,-0.453 3.677,-0.791 7.907,-0.791 15.634,0 35.680001,6.833 35.680001,31.303 0,20.153 -15.996001,31.567 -31.822001,31.567 m 756.753001,-28.929 -2.896,-0.834 c -8.566,-2.35 -13.576,-4.865 -13.576,-9.063 0,-4.028 4.747,-7.035 11.463,-7.035 10.404,0 15.025,5.685 17.922,11.233 l 5.789,-0.596 c -1.437,-5.704 -2.365,-9.817 -2.88,-13.093 -1.719,-0.337 -3.825,-0.675 -6.86,-1.168 -3.824,-0.681 -8.044,-1.018 -12.121,-1.018 -20.693,0 -31.492,7.726 -31.492,17.216 0,8.979 12.127,13.434 23.053,16.539 l 1.981,0.582 c 8.164,2.184 13.181,5.12 13.181,10.075 0,5.455 -5.345,8.022 -12.204,8.022 -12.912,0 -20.617,-9.038 -23.371,-13.899 l -5.806,1.097 c 1.174,4.176 2.42,7.749 3.413,10.904 l 0.499,1.624 c -0.993,-0.198 -1.761,-0.385 -1.767,-0.385 -3.101,-0.834 -6.212,-2.551 -10.811,-6.524 -8.182,-7.051 -16.742,-15.699 -24.786,-23.677 5.443,-4.11 11.945,-8.386 18.942,-12.756 6.749,-4.283 10.767,-4.396 18.169,-4.895 v -3.435 h -34.779 v 2.833 l 4.933,0.012 c 3.507,0.257 2.08,2.543 0.264,4.055 -7.528,6.374 -15.441,12.593 -24.913,19.475 v -13.102 c 0,-9.054 1.037,-9.929 9.603,-10.44 v -2.833 h -40.48 v 2.833 c 9.077,0.511 10.113,1.386 10.113,10.44 v 28.63 c 0,3.261 -0.143,5.643 -0.708,7.266 -0.845,2.19 -3.66,2.591 -5.685,2.283 -2.755,-0.429 -4.928,-2.485 -6.766,-4.434 -2.014,-2.118 -4.017,-4.258 -6.063,-6.366 -3.76,-3.885 -8.615,-10.271 -10.442,-12.621 9.668,-2.441 16.852,-6.804 16.852,-14.189 0,-4.953 -3.918,-9.035 -9.147,-11.137 -5.088,-2.102 -11.892,-2.705 -22.081,-2.705 h -41.519 l 0.84,2.833 c 8.758,0.511 8.955,1.386 8.955,10.44 v 11.938 c -0.438,-16.322 -20.863,-27.335 -44.98,-27.335 -19.168,0 -30.152,5.699 -37.342,13.194 4.396,-8.621 7.32,-14.091 7.727,-14.745 6.195,-10.138 7.842,-10.017 18.054,-10.945 v -3.879 h -43.598 v 3.879 l 6.942,0.461 c 7.841,0.466 8.39,1.416 6.014,7.984 -2.558,6.793 -9.302,22.88 -15.688,36.368 l -0.357,-0.627 -27.733,-48.143 h -12.758 l -23.897,48.143 -0.368,0.627 -17.323,-38.404 c -2.195,-4.719 -1.646,-5.377 5.108,-5.948 l 5.833,-0.461 v -3.879 h -56.91 v 3.879 c 8.391,0.689 11.672,0.689 16.6,10.248 l 2.223,4.382 h -27.174 l -20.325,33.685 -23.25,-33.685 h -31.235 v 2.823 c 10.498,0.585 11.562,2.028 10.635,12.745 l -1.459,17.183 c -0.664,7.737 -1.465,12.249 -2.129,14.883 -0.23,0.9 -0.373,1.996 -1.152,2.173 -0.917,0.138 -2.941,-3.052 -4.664,-6.168 -4.851,-8.682 -10.338,-18.718 -15.837,-28.836 l -8.681,-16.081 -8.818,1.19 -25.539,43.973 c -0.296,0.511 -0.582,0.972 -0.856,1.41 -0.977,1.296 -1.97,2.514 -2.969,3.212 -2.859,2.046 -10.239,2.557 -15.43,2.557 -4.022,0 -7.002,-0.094 -9.082,-0.774 -2.332,-0.768 -2.596,-3.084 -2.596,-7.496 v -13.702 h 6.492 c 11.156,0 11.54,0.346 12.84,7.831 h 5.707 v -20.086 h -5.707 c -1.301,6.466 -1.685,6.796 -12.84,6.796 h -6.492 v -16.229 c 0,-2.985 0.258,-3.399 5.191,-3.399 h 2.206 c 6.871,0 11.156,0.51 13.23,1.953 2.074,1.367 3.501,4.166 4.801,8.335 l 5.702,-0.26 c -0.648,-6.376 -1.285,-12.591 -1.422,-14.031 h -61.492 v 2.823 c 8.692,0.511 9.735,1.594 9.735,10.789 v 28.074 c 0,6.485 -0.532,8.681 -4.357,9.591 -1.344,0.303 -2.782,0.33 -4.115,-0.065 -1.114,-0.318 -2.047,-1.009 -2.958,-1.707 -2.047,-1.705 -4.873,-4.593 -9.23,-9.103 -3.726,-3.907 -8.467,-9.779 -10.267,-12.161 9.493,-2.464 16.556,-6.892 16.556,-14.376 0,-5.023 -3.847,-8.851 -8.988,-10.969 -5,-2.135 -11.678,-2.895 -21.692,-2.895 l -41.775,0.03 c -2.958,-3.558 -6.388,-6.338 -9.823,-8.464 -12.33,-7.394 -31.086001,-10.124 -53.711001,-10.124 h -53.705 v 4.439 c 11.957,0.687 13.428,1.482 13.428,13.779 v 37.559 c 0,12.304 -1.471,13.708 -14.898,14.389 v 3.671 h 47.456 c 42.483001,0 77.246001,-12.023 77.246001,-40.374 0,-4.299 -1.372,-8.177 -3.468,-11.565 h 1.158 c 0,0 1.822,-0.044 3.49,0.22 0.176,0.033 1.465,0.315 2.283,1.04 1.608,1.459 1.916,4.085 1.916,9.013 v 28.074 c 0,9.18 -1.026,10.124 -10.136,10.645 v 2.958 h 40.541 v -2.958 c -8.846,-0.521 -9.877,-1.465 -9.877,-10.645 v -10.218 h 1.679 c 2.431,0 4.23,1.283 5.389,3.072 4.543,6.755 9.373,14.465 16.928,18.174 5.125,2.504 10.695,2.574 16.287,2.574 h 54.979 14.668 15.09 v -2.958 h -3.704 c -5.871,-0.427 -6.003,-1.894 -4.214,-5.554 l 3.836,-7.989 h 20.939 l 4.604,8.506 c 1.657,3.057 1.399,4.526 -3.32,4.955 l -3.835,0.082 v 2.958 h 23.574 16.528 16.287 v -2.958 c -8.631,-0.438 -11.55,-1.547 -12.083,-4.696 -0.538,-2.634 -0.664,-6.717 -0.264,-14.037 l 0.933,-18.885 h 0.264 l 24.875,40.577 h 6.063 l 26.197,-43.548 h 0.532 l 0.4,29.945 c 0.131,9.438 -0.264,10.041 -10.234,10.645 v 2.958 h 41.589 v -2.694 c -9.564,-0.598 -9.828,-1.471 -10.229,-10.908 l -1.333,-28.508 c -0.34,-7.715 0.017,-9.474 6.65,-10.198 l 27.064,52.347 h 14.042 l 24.446,-46.003 h 0.362 l 26.817,46.003 h 14.048 c 5.239,-11.436 10.415,-21.401 14.931,-30.543 -0.093,0.796 -0.153,1.593 -0.153,2.382 0,15.441 17.45,29.017 44.36,29.017 25.274,0 44.563,-12.204 45.002,-29.829 v 15.54 c 0,9.065 -1.042,9.933 -10.327,10.438 v 2.996 h 42.051 v -2.996 c -9.017,-0.505 -10.06,-1.372 -10.06,-10.438 v -10.688 h 1.696 c 2.486,0 4.318,1.262 5.498,3.029 3.199,4.807 6.333,9.744 10.498,13.8 3.939,3.825 8.943,6.317 14.403,6.942 2.777,0.329 5.57,0.313 8.364,0.313 h 5.175 0.043 7.742 31.69 v -2.958 c -9.208,-0.505 -10.508,-1.372 -10.245,-10.438 v -13.422 h 0.258 c 9.466,9.144 22.981,21.446 27.915,26.817 h 26.119 6.366 c 3.507,0.538 8.643,1.181 13.203,1.19 h -0.006 c 1.278,0.066 2.573,0.11 3.868,0.11 20.419,0 33.463,-7.557 33.463,-17.879 -0.01,-9.832 -10.416,-14.195 -22.538,-17.639"
   id="path12"
   inkscape:connector-curvature="0" />
</svg>
