<?xml version="1.0" encoding="utf-8"?>
<!-- Generator: Adobe Illustrator 25.3.1, SVG Export Plug-In . SVG Version: 6.00 Build 0)  -->
<svg version="1.1" id="Livello_1" xmlns="http://www.w3.org/2000/svg" xmlns:xlink="http://www.w3.org/1999/xlink" x="0px" y="0px"
	 viewBox="0 0 62.9 80" style="enable-background:new 0 0 62.9 80;" xml:space="preserve">

<g>
	<path class="testimonial" d="M42.9,35.7c-1.3,0-2.5,0.5-6.2,3.1v14.1c6.4-7.1,8.2-12,8.2-14.5C44.9,36.7,44.1,35.7,42.9,35.7z"/>
	<path class="testimonial" d="M43.4,26.3c0-2.5-2.9-4.6-6.7-4.8v13C41.6,31.7,43.4,28.9,43.4,26.3z"/>
	<path class="testimonial" d="M54.7,20.8c-0.1-0.2-0.1-0.3-0.2-0.4L50,19.2l-0.6-2.6c0-0.1-0.1-0.2-0.2-0.2l-4.6-1.2L44,12.7
		c0-0.2-0.1-0.3-0.2-0.3l-12-2.2c-0.2,0-0.4,0-0.6,0l-12,2.2c-0.1,0-0.2,0.1-0.2,0.3l-0.6,2.4l-4.6,1.2c-0.1,0-0.2,0.1-0.2,0.2
		L13,19.1l-4.5,1.2c-0.1,0-0.2,0.1-0.2,0.4c-0.4,1.9-0.6,4-0.6,6.1c0,18,9.4,33.6,23.3,42.9c0.2,0.1,0.4,0.2,0.5,0.2
		s0.3-0.1,0.5-0.2c14-9.3,23.3-24.9,23.3-42.9C55.3,24.8,55.1,22.7,54.7,20.8z M29.7,61.4c0,0.1-0.1,0.2-0.2,0.1
		c-3.4-3.9-5.7-8.7-7.3-14L19.8,49c-0.6,0.4-1.1,0.2-1.5-0.4c-3.2-5.6-5.2-14.8-5.4-21.3c0-0.3,0.1-0.5,0.3-0.8c0.8-1,1.8-2,2.7-2.9
		c0.2-0.2,0.4-0.1,0.4,0.2c0,8,1.4,15.4,3.6,20.3c0.2,0.4,0.4,0.4,0.6,0.2l0.7-0.4c-1.3-5.8-2.1-13.5-1.9-22.5
		c0-0.3,0.1-0.4,0.2-0.6c0.7-0.4,1.9-1.1,3-1.6c0.3-0.1,0.4-0.1,0.4,0.2c-0.2,13,0.9,22,3.2,29.1c0.1,0.2,0.2,0.1,0.2-0.1
		c-0.1-2.6-0.1-4.9-0.1-7.7l-0.1-22.4c0-0.2,0.1-0.4,0.3-0.4c1.1-0.2,2-0.4,3.1-0.6c0.1,0,0.2,0.1,0.2,0.2
		C29.7,17.5,29.7,61.4,29.7,61.4z M33.5,61.5c-0.1,0.1-0.2,0.1-0.2-0.1V17.6c0-0.1,0.1-0.2,0.2-0.2c8.4,0.6,13.7,4.1,13.7,9.1
		c0,2.1-0.8,4.2-2.2,5.7c2.7,0.7,3.8,2.8,3.8,5.6C48.7,42.6,45.2,50.6,33.5,61.5z"/>
</g>
</svg>
